<svg width="48" height="48" viewBox="0 0 48 48" fill="none" xmlns="http://www.w3.org/2000/svg">
<path fill-rule="evenodd" clip-rule="evenodd" d="M43.065 5.6667H43.7983C45.0133 5.6667 45.9983 6.65163 45.9983 7.8667V37.1999C45.9983 38.415 45.0133 39.3999 43.7983 39.3999H31.3316C30.9266 39.3999 30.5983 39.0716 30.5983 38.6666C30.5983 38.2616 30.9266 37.9333 31.3316 37.9333H43.7982C44.2032 37.9333 44.5315 37.605 44.5315 37.2V7.8667C44.5315 7.46167 44.2032 7.13339 43.7982 7.13339H10.0649C9.65995 7.13339 9.33159 7.46167 9.33159 7.8667V11.5334H41.5985C42.0036 11.5334 42.3318 11.8617 42.3318 12.2667C42.3318 12.6717 42.0036 13 41.5985 13H9.33184V15.9333C9.33184 16.3383 9.00356 16.6666 8.59854 16.6666C8.19352 16.6666 7.86523 16.3383 7.86523 15.9333V7.86661C7.86523 6.65154 8.85016 5.66661 10.0652 5.66661H10.7985V2.7333C10.7985 2.32828 11.1268 2 11.5318 2C11.9369 2 12.2651 2.32828 12.2651 2.7333V5.66661H15.9318V2.7333C15.9318 2.32828 16.2601 2 16.6651 2C17.0702 2 17.3985 2.32828 17.3985 2.7333V5.66661H21.0651V2.7333C21.0651 2.32828 21.3934 2 21.7985 2C22.2035 2 22.5318 2.32828 22.5318 2.7333V5.66661H26.1985V2.7333C26.1985 2.32828 26.5267 2 26.9318 2C27.3368 2 27.6651 2.32828 27.6651 2.7333V5.66661H31.3318V2.7333C31.3318 2.32828 31.66 2 32.0651 2C32.4701 2 32.7984 2.32828 32.7984 2.7333V5.66661H36.4651V2.7333C36.4651 2.32828 36.7933 2 37.1984 2C37.6034 2 37.9317 2.32828 37.9317 2.7333V5.66661H41.5984V2.7333C41.5984 2.32828 41.9267 2 42.3317 2C42.7367 2 43.065 2.32828 43.065 2.7333V5.6667ZM29.0849 39.2247L23.5438 35.531C22.7198 34.9867 21.6159 35.166 21.0065 35.9431L19.4511 37.9334H18.4978C16.7283 36.9596 15.1312 35.701 13.7708 34.2081C12.2643 32.8371 10.9969 31.2246 10.0205 29.437L9.85037 29.1261C9.75111 28.9452 9.7995 28.7189 9.96407 28.5944L12.0445 26.9811C12.8233 26.3724 13.0031 25.2671 12.4574 24.443L8.76283 18.9027C8.20372 18.0636 7.08387 17.812 6.2196 18.3314L3.90444 19.7211C3.11588 20.1859 2.53769 20.9378 2.29114 21.8192C1.43391 24.9308 2.05867 30.2811 9.88114 38.1036C16.0895 44.3134 20.7404 45.9862 23.9516 45.9862C24.6989 45.9895 25.4434 45.8923 26.1648 45.6973C27.0465 45.451 27.7984 44.8728 28.2629 44.084L29.6562 41.7674C30.1763 40.9034 29.9246 39.7832 29.0849 39.2247ZM28.3982 41.0133L27.0049 43.3299C26.7336 43.7944 26.2931 44.136 25.7758 44.2832C21.9082 45.3436 16.6311 42.7814 10.917 37.0672C5.20294 31.3531 2.64123 26.0753 3.70239 22.2077C3.84968 21.6904 4.1912 21.2499 4.65569 20.9786L6.97231 19.5853C7.16558 19.4693 7.416 19.5259 7.54061 19.7136L11.2381 25.2568C11.3595 25.441 11.3193 25.6876 11.1457 25.8237L9.07185 27.437C8.33227 28.0031 8.12078 29.0265 8.57539 29.8394L8.57685 29.8408L8.74039 30.1408C9.78203 32.0523 11.1339 33.7776 12.7407 35.2462C14.2097 36.8543 15.9361 38.2067 17.8491 39.248L18.1468 39.4108C18.8262 39.7917 19.6709 39.7101 20.2647 39.2061C20.2694 39.2021 20.2746 39.1987 20.2798 39.1952L20.2798 39.1952C20.286 39.1911 20.2922 39.1871 20.2977 39.1819C20.3898 39.1016 20.474 39.0127 20.5492 38.9164L22.1625 36.8426C22.2985 36.6687 22.5453 36.6284 22.7294 36.7502L28.2697 40.444C28.4584 40.5688 28.515 40.82 28.3982 41.0133ZM11.8089 8.65864C11.765 8.63639 11.7176 8.62152 11.6688 8.61464C11.575 8.59264 11.4773 8.59264 11.3836 8.61464C11.3376 8.62264 11.2932 8.63742 11.2516 8.65864C11.2046 8.6748 11.16 8.69697 11.1188 8.72464L11.0096 8.81264C10.726 9.10182 10.726 9.56477 11.0096 9.85395C11.1492 9.9893 11.3358 10.0654 11.5303 10.0666C11.5768 10.0654 11.6232 10.0605 11.6689 10.0519C11.7177 10.0451 11.765 10.0302 11.809 10.0079C11.8556 9.99179 11.9001 9.96962 11.941 9.94195L12.051 9.85395C12.3346 9.56477 12.3346 9.10182 12.051 8.81264L11.941 8.72464C11.8999 8.69697 11.8555 8.6748 11.8089 8.65864ZM16.8036 8.61464C16.8524 8.62152 16.8997 8.63639 16.9436 8.65864C16.9903 8.6748 17.0346 8.69697 17.0757 8.72464L17.1857 8.81264C17.4693 9.10182 17.4693 9.56477 17.1857 9.85395L17.0757 9.94195C17.0348 9.96962 16.9904 9.99179 16.9437 10.0079C16.8998 10.0302 16.8525 10.0451 16.8036 10.0519C16.7579 10.0605 16.7115 10.0654 16.665 10.0666C16.4706 10.0654 16.284 9.9893 16.1443 9.85395C15.8607 9.56477 15.8607 9.10182 16.1443 8.81264L16.2536 8.72464C16.2948 8.69697 16.3394 8.6748 16.3863 8.65864C16.4279 8.63742 16.4724 8.62264 16.5183 8.61464C16.6121 8.59264 16.7097 8.59264 16.8036 8.61464ZM22.0765 8.65864C22.0325 8.63639 21.9852 8.62152 21.9364 8.61464C21.8425 8.59264 21.7449 8.59264 21.6511 8.61464C21.6052 8.62264 21.5607 8.63742 21.5191 8.65864C21.4722 8.6748 21.4276 8.69697 21.3864 8.72464L21.2771 8.81264C20.9936 9.10182 20.9936 9.56477 21.2771 9.85395C21.4168 9.9893 21.6034 10.0654 21.7978 10.0666C21.8443 10.0654 21.8907 10.0605 21.9365 10.0519C21.9853 10.0451 22.0326 10.0302 22.0765 10.0079C22.1232 9.99179 22.1676 9.96962 22.2085 9.94195L22.3185 9.85395C22.6021 9.56477 22.6021 9.10182 22.3185 8.81264L22.2085 8.72464C22.1675 8.69697 22.1231 8.6748 22.0765 8.65864ZM27.0692 8.61464C27.118 8.62152 27.1654 8.63639 27.2093 8.65864C27.2559 8.6748 27.3003 8.69697 27.3414 8.72464L27.4514 8.81264C27.7349 9.10182 27.7349 9.56477 27.4514 9.85395L27.3414 9.94195C27.3004 9.96962 27.256 9.99179 27.2094 10.0079C27.1654 10.0302 27.1181 10.0451 27.0693 10.0519C27.0236 10.0605 26.9771 10.0654 26.9307 10.0666C26.7362 10.0654 26.5496 9.9893 26.41 9.85395C26.1264 9.56477 26.1264 9.10182 26.41 8.81264L26.5192 8.72464C26.5604 8.69697 26.605 8.6748 26.652 8.65864C26.6936 8.63742 26.738 8.62264 26.784 8.61464C26.8777 8.59264 26.9753 8.59264 27.0692 8.61464ZM32.344 8.65864C32.3001 8.63639 32.2528 8.62152 32.204 8.61464C32.1101 8.59264 32.0125 8.59264 31.9187 8.61464C31.8727 8.62264 31.8283 8.63742 31.7867 8.65864C31.7398 8.6748 31.6952 8.69697 31.654 8.72464L31.5447 8.81264C31.2611 9.10182 31.2611 9.56477 31.5447 9.85395C31.6844 9.9893 31.8709 10.0654 32.0654 10.0666C32.1119 10.0654 32.1583 10.0605 32.204 10.0519C32.2529 10.0451 32.3002 10.0302 32.3441 10.0079C32.3908 9.99179 32.4352 9.96962 32.4761 9.94195L32.5861 9.85395C32.8697 9.56477 32.8697 9.10182 32.5861 8.81264L32.4761 8.72464C32.435 8.69697 32.3907 8.6748 32.344 8.65864ZM37.3368 8.61464C37.3856 8.62152 37.4329 8.63639 37.4768 8.65864C37.5235 8.6748 37.5679 8.69697 37.6089 8.72464L37.7189 8.81264C38.0025 9.10182 38.0025 9.56477 37.7189 9.85395L37.6089 9.94195C37.568 9.96962 37.5236 9.99179 37.4769 10.0079C37.433 10.0302 37.3857 10.0451 37.3369 10.0519C37.2911 10.0605 37.2447 10.0654 37.1982 10.0666C37.0038 10.0654 36.8172 9.9893 36.6775 9.85395C36.3939 9.56477 36.3939 9.10182 36.6775 8.81264L36.7868 8.72464C36.828 8.69697 36.8726 8.6748 36.9195 8.65864C36.9611 8.63742 37.0056 8.62264 37.0515 8.61464C37.1453 8.59264 37.2429 8.59264 37.3368 8.61464ZM42.7417 9.94195L42.8517 9.85395C43.1353 9.56477 43.1353 9.10182 42.8517 8.81264L42.7417 8.72464C42.7007 8.69697 42.6563 8.6748 42.6097 8.65864C42.5657 8.63639 42.5184 8.62152 42.4696 8.61464C42.3757 8.59264 42.2781 8.59264 42.1844 8.61464C42.1384 8.62264 42.0939 8.63742 42.0524 8.65864C42.0054 8.6748 41.9608 8.69697 41.9196 8.72464L41.8104 8.81264C41.5268 9.10182 41.5268 9.56477 41.8104 9.85395C41.95 9.9893 42.1366 10.0654 42.331 10.0666C42.3775 10.0654 42.4239 10.0605 42.4697 10.0519C42.5185 10.0451 42.5658 10.0302 42.6097 10.0079C42.6563 9.99179 42.7007 9.96962 42.7417 9.94195ZM14.4648 22.5332C14.4648 22.1282 14.7931 21.7999 15.1981 21.7999V21.7997H15.9315V17.3997H15.1981C14.7932 17.3997 14.4648 17.0714 14.4648 16.6664C14.4648 16.2614 14.7931 15.9331 15.1981 15.9331H40.8648C41.2697 15.9331 41.5981 16.2614 41.5981 16.6664V34.2664C41.5981 34.6714 41.2698 34.9997 40.8648 34.9997H29.8648C29.4597 34.9997 29.1315 34.6714 29.1315 34.2664C29.1315 33.8614 29.4597 33.5331 29.8648 33.5331H32.0648V29.1331H24.7315C24.3264 29.1331 23.9981 28.8048 23.9981 28.3998V23.2665H15.1981C14.7932 23.2665 14.4648 22.9382 14.4648 22.5332ZM40.1312 17.3999H33.5312V21.7999H40.1312V17.3999ZM33.5312 23.2666H40.1312V27.6666H33.5312V23.2666ZM40.1312 29.1333H33.5312V33.5333H40.1312V29.1333ZM25.4648 17.3999H32.0648V21.7999H25.4648V17.3999ZM32.0648 23.2666H25.4648V27.6666H32.0648V23.2666ZM17.3984 17.3999H23.9984V21.7999H17.3984V17.3999Z" fill="#AD8775"/>
</svg>
