<svg width="18" height="18" viewBox="0 0 18 18" fill="none" xmlns="http://www.w3.org/2000/svg">
<path fill-rule="evenodd" clip-rule="evenodd" d="M9 1.125C4.65076 1.125 1.125 4.65076 1.125 9C1.125 13.3492 4.65076 16.875 9 16.875C13.3492 16.875 16.875 13.3492 16.875 9C16.875 4.65076 13.3492 1.125 9 1.125ZM0 9C0 4.02944 4.02944 0 9 0C13.9706 0 18 4.02944 18 9C18 13.9706 13.9706 18 9 18C4.02944 18 0 13.9706 0 9ZM6.07092 6.07092C6.29059 5.85125 6.64674 5.85125 6.86641 6.07092L8.99991 8.20442L11.1334 6.07092C11.3531 5.85125 11.7092 5.85125 11.9289 6.07092C12.1486 6.29059 12.1486 6.64674 11.9289 6.86641L9.79541 8.99991L11.9289 11.1334C12.1486 11.3531 12.1486 11.7092 11.9289 11.9289C11.7092 12.1486 11.3531 12.1486 11.1334 11.9289L8.99991 9.79541L6.86641 11.9289C6.64674 12.1486 6.29059 12.1486 6.07092 11.9289C5.85125 11.7092 5.85125 11.3531 6.07092 11.1334L8.20442 8.99991L6.07092 6.86641C5.85125 6.64674 5.85125 6.29059 6.07092 6.07092Z" fill="#AD8775"/>
</svg>
