<svg width="24" height="24" viewBox="0 0 24 24" fill="none" xmlns="http://www.w3.org/2000/svg">
<path d="M22.0486 4.625C22.3415 4.625 22.5812 4.74805 22.7676 4.99414C22.9806 5.24023 23.0472 5.51367 22.9673 5.81445L21.2498 14.3457C21.2231 14.4551 21.1832 14.5645 21.1299 14.6738C21.0767 14.7559 21.0101 14.8379 20.9302 14.9199C20.8503 14.9746 20.7571 15.0293 20.6506 15.084C20.5441 15.1113 20.4376 15.125 20.3311 15.125H7.06994L7.54926 17.75H19.3724C19.8784 17.75 20.1979 17.9961 20.3311 18.4883C20.837 19.0078 21.09 19.6367 21.09 20.375C21.09 21.1133 20.837 21.7285 20.3311 22.2207C19.8518 22.7402 19.2526 23 18.5336 23C17.8147 23 17.2022 22.7402 16.6962 22.2207C16.2169 21.7285 15.9773 21.1133 15.9773 20.375C15.9773 19.9102 16.0971 19.4727 16.3368 19.0625H10.5051C10.7447 19.4727 10.8645 19.9102 10.8645 20.375C10.8645 21.1133 10.6116 21.7285 10.1056 22.2207C9.6263 22.7402 9.02715 23 8.30818 23C7.5892 23 6.97674 22.7402 6.47079 22.2207C5.99147 21.7285 5.75182 21.1133 5.75182 20.375C5.75182 19.6914 5.97816 19.1035 6.43085 18.6113L3.63483 3.3125H0.479318C0.159773 3.3125 0 3.14844 0 2.82031V2.49219C0 2.16406 0.159773 2 0.479318 2H3.87449C4.11415 2 4.31386 2.08203 4.47363 2.24609C4.66004 2.38281 4.77987 2.57422 4.83312 2.82031L5.15267 4.625H22.0486ZM9.18693 21.2773C9.45322 21.0312 9.58636 20.7305 9.58636 20.375C9.58636 20.0195 9.45322 19.7188 9.18693 19.4727C8.94727 19.1992 8.65435 19.0625 8.30818 19.0625C7.962 19.0625 7.65577 19.1992 7.38949 19.4727C7.14983 19.7188 7.03 20.0195 7.03 20.375C7.03 20.7305 7.14983 21.0312 7.38949 21.2773C7.65577 21.5508 7.962 21.6875 8.30818 21.6875C8.65435 21.6875 8.94727 21.5508 9.18693 21.2773ZM17.6149 21.2773C17.8812 21.5508 18.1875 21.6875 18.5336 21.6875C18.8798 21.6875 19.1727 21.5508 19.4124 21.2773C19.6787 21.0312 19.8118 20.7305 19.8118 20.375C19.8118 20.0195 19.6787 19.7188 19.4124 19.4727C19.1727 19.1992 18.8798 19.0625 18.5336 19.0625C18.1875 19.0625 17.8812 19.1992 17.6149 19.4727C17.3753 19.7188 17.2554 20.0195 17.2554 20.375C17.2554 20.7305 17.3753 21.0312 17.6149 21.2773ZM20.0515 13.8125L21.6492 5.9375H5.39233L6.83028 13.8125H20.0515Z" fill="#AD8775"/>
</svg>
