<svg width="24" height="24" viewBox="0 0 24 24" fill="none" xmlns="http://www.w3.org/2000/svg">
<path d="M13.4193 12.0002L19.7114 5.7081C20.1023 5.31752 20.1023 4.68377 19.7114 4.29319C19.3205 3.90227 18.6874 3.90227 18.2965 4.29319L12.0044 10.5853L5.71201 4.29319C5.32109 3.90227 4.68801 3.90227 4.2971 4.29319C3.90618 4.68377 3.90618 5.31752 4.2971 5.7081L10.5895 12.0002L4.2971 18.2922C3.90618 18.6828 3.90618 19.3166 4.2971 19.7071C4.49256 19.9023 4.74872 20 5.00455 20C5.26038 20 5.51655 19.9023 5.71201 19.7068L12.0044 13.4147L18.2965 19.7068C18.4919 19.9023 18.7481 20 19.0039 20C19.2598 20 19.5159 19.9023 19.7114 19.7068C20.1023 19.3162 20.1023 18.6825 19.7114 18.2919L13.4193 12.0002Z" fill="#AD8775"/>
</svg>
