<svg width="24" height="24" viewBox="0 0 24 24" fill="none" xmlns="http://www.w3.org/2000/svg">
<path fill-rule="evenodd" clip-rule="evenodd" d="M12.4979 3.65012C11.2804 3.64695 10.0794 3.9314 8.99268 4.48031L8.99022 4.48156C6.33107 5.81056 4.65078 8.52762 4.64963 11.5004L4.64962 11.5018C4.64645 12.7193 4.9309 13.9203 5.47982 15.0071C5.55795 15.1618 5.57108 15.3413 5.51627 15.5057L4.02737 19.9724L8.49408 18.4835C8.65849 18.4287 8.83799 18.4418 8.99268 18.5199C10.0794 19.0688 11.2804 19.3533 12.4979 19.3501L12.4994 19.3501C15.4721 19.349 18.1892 17.6687 19.5182 15.0095L19.5194 15.0071C20.0683 13.9203 20.3528 12.7193 20.3496 11.5018L20.9996 11.5001H20.3496V11.0184C20.1218 7.04745 16.9523 3.87799 12.9814 3.65013H12.4996L12.4979 3.65012ZM21.6496 11.4992C21.6532 12.9207 21.3212 14.3229 20.6805 15.5918C19.1313 18.6905 15.965 20.6485 12.5006 20.6501C11.1703 20.6535 9.85693 20.3629 8.65387 19.8005L3.20517 21.6168C2.97161 21.6946 2.7141 21.6338 2.54001 21.4597C2.36592 21.2857 2.30513 21.0281 2.38298 20.7946L4.19922 15.3459C3.63684 14.1428 3.34626 12.8294 3.34963 11.4991C3.35124 8.03483 5.30922 4.86852 8.4078 3.31932L8.40657 3.31994L8.69963 3.90013L8.40904 3.3187L8.4078 3.31932C9.67672 2.67863 11.079 2.34656 12.5005 2.35013H12.9996C13.0116 2.35013 13.0235 2.35046 13.0354 2.35111C17.6821 2.60746 21.3923 6.3177 21.6486 10.9643C21.6493 10.9762 21.6496 10.9882 21.6496 11.0001V11.4992Z" fill="#AD8775"/>
</svg>
