<svg width="48" height="48" viewBox="0 0 48 48" fill="none" xmlns="http://www.w3.org/2000/svg">
<path fill-rule="evenodd" clip-rule="evenodd" d="M43.9626 19.1554C43.9766 19.1993 43.9858 19.2447 43.9899 19.2907C43.9903 19.2974 43.9921 19.3036 43.9939 19.3098L43.9939 19.3099C43.9959 19.3166 43.9979 19.3234 43.998 19.3307V41.9974C43.997 42.4214 43.8598 42.8339 43.6066 43.174C43.6056 43.1755 43.6048 43.177 43.6041 43.1785C43.6035 43.1799 43.6029 43.1813 43.6024 43.1827C43.6011 43.1859 43.5997 43.1892 43.5973 43.1927C43.5949 43.1961 43.5916 43.1983 43.5882 43.2006C43.5871 43.2013 43.586 43.202 43.5849 43.2028C43.5829 43.2043 43.581 43.2059 43.5793 43.208C43.2043 43.7035 42.6194 43.9954 41.998 43.9973H5.99797C5.37898 43.9946 4.79648 43.7041 4.42195 43.2113C4.41841 43.2074 4.41392 43.2038 4.40978 43.2006C4.40616 43.1977 4.40281 43.1951 4.40062 43.1926C4.39808 43.1897 4.39672 43.1861 4.39535 43.1825C4.39424 43.1796 4.39311 43.1766 4.39133 43.1739C4.13813 42.8339 4.00094 42.4214 4 41.9973V19.3288C4 19.3218 4.00199 19.3153 4.00398 19.3088L4.00399 19.3088C4.00598 19.3023 4.00797 19.2958 4.00797 19.2888C4.01227 19.2435 4.02141 19.1988 4.03531 19.1554C4.04445 19.1161 4.05711 19.0777 4.07328 19.0407C4.09195 19.0045 4.1143 18.9704 4.13992 18.9387C4.16563 18.9011 4.19539 18.8664 4.22859 18.8354C4.23371 18.8309 4.23745 18.8256 4.24121 18.8203C4.24527 18.8146 4.24936 18.8089 4.25523 18.804L10.6645 13.8247V8.66402C10.6645 7.55941 11.56 6.66402 12.6645 6.66402H19.8892L22.7826 4.41801C23.4972 3.86066 24.4993 3.86066 25.2139 4.41801L28.1066 6.66402H35.3313C36.4359 6.66402 37.3313 7.55949 37.3313 8.66402V13.8246L43.7427 18.8039C43.7447 18.8056 43.7466 18.8074 43.7482 18.8093C43.7514 18.8128 43.754 18.8165 43.7566 18.8202C43.7604 18.8255 43.7641 18.8308 43.7693 18.8353C43.8025 18.8664 43.8323 18.9011 43.858 18.9386C43.8836 18.9703 43.9059 19.0045 43.9246 19.0407C43.9407 19.0777 43.9534 19.1161 43.9626 19.1554ZM24.3932 5.46996C24.1604 5.28496 23.8307 5.28496 23.5979 5.46996L22.0645 6.66395H25.9312L24.3932 5.46996ZM6.16594 42.664L23.598 29.1233C23.8309 28.9386 24.1604 28.9386 24.3933 29.1233L41.8299 42.664H6.16594ZM42.6643 41.6245L42.6644 41.6247H42.6643V41.6245ZM25.2137 28.0713L42.6643 41.6245V20.346L31.7203 28.844C31.5324 28.9933 31.2787 29.03 31.0561 28.9402C30.8336 28.8504 30.6764 28.6479 30.6447 28.41C30.613 28.1722 30.7117 27.9356 30.9029 27.7907L42.0209 19.1573L37.3309 15.5126V20.664C37.3309 21.0321 37.0325 21.3306 36.6643 21.3306C36.2961 21.3306 35.9976 21.0322 35.9976 20.664V8.66396C35.9976 8.29575 35.6992 7.99731 35.331 7.99731H12.6643C12.2961 7.99731 11.9977 8.29575 11.9977 8.66396V20.664C11.9977 21.0321 11.6993 21.3306 11.3311 21.3306C10.9629 21.3306 10.6644 21.0322 10.6644 20.664V15.5126L5.97441 19.1573L17.0731 27.7753C17.3642 28.001 17.4171 28.4199 17.1914 28.711C16.9657 29.0021 16.5468 29.055 16.2557 28.8293L5.33105 20.346V41.6247L22.7824 28.0713C23.4971 27.5144 24.4989 27.5144 25.2137 28.0713Z" fill="currentColor"/>
<path d="M31.998 19.9972V17.3306C31.998 12.9123 28.4163 9.33057 23.998 9.33057C19.5798 9.33057 15.998 12.9123 15.998 17.3306C15.998 21.7488 19.5798 25.3306 23.998 25.3306C24.3663 25.3306 24.6647 25.0321 24.6647 24.6639C24.6647 24.2957 24.3663 23.9973 23.998 23.9973C20.3162 23.9973 17.3314 21.0125 17.3314 17.3306C17.3314 13.6488 20.3162 10.664 23.998 10.664C27.6799 10.664 30.6647 13.6488 30.6647 17.3306V19.9973C30.6647 20.7337 30.0677 21.3306 29.3313 21.3306C28.5949 21.3306 27.998 20.7337 27.998 19.9973V17.3306C27.998 16.9624 27.6995 16.664 27.3313 16.664C26.9631 16.664 26.6647 16.9624 26.6647 17.3306C26.6647 18.8034 25.4708 19.9973 23.998 19.9973C22.5253 19.9973 21.3314 18.8034 21.3314 17.3306C21.3314 15.8579 22.5253 14.664 23.998 14.664C24.3663 14.664 24.6647 14.3656 24.6647 13.9974C24.6647 13.6292 24.3663 13.3307 23.998 13.3307C22.2078 13.3267 20.6329 14.5128 20.1423 16.2345C19.6516 17.9562 20.3647 19.7942 21.8881 20.7346C23.4116 21.6749 25.3742 21.4885 26.6934 20.2781C26.8385 21.6879 28.0639 22.7362 29.4792 22.6613C30.8946 22.5863 32.0025 21.4146 31.998 19.9972Z" fill="currentColor"/>
</svg>
