<svg width="24" height="24" viewBox="0 0 24 24" fill="none" xmlns="http://www.w3.org/2000/svg">
<g clip-path="url(#clip0_109_5812)">
<path d="M24.0039 12C24.0039 5.37206 18.6319 0 12.0039 0C5.37596 0 0.00390625 5.37206 0.00390625 12C0.00390625 17.9901 4.38966 22.9545 10.1299 23.8553V15.4718H7.08555V12H10.1299V9.35671C10.1299 6.35178 11.9184 4.68822 14.6603 4.68822C15.9754 4.68822 17.3497 4.92493 17.3497 4.92493V7.87726H15.8373C14.3447 7.87726 13.8845 8.80438 13.8845 9.75123V12H17.2116L16.679 15.4718H13.8845V23.8553C19.6182 22.9545 24.0039 17.9901 24.0039 12Z" fill="#1877F2"/>
</g>
<defs>
<clipPath id="clip0_109_5812">
<rect width="24" height="24" fill="white"/>
</clipPath>
</defs>
</svg>
