<svg width="24" height="24" viewBox="0 0 24 24" fill="none" xmlns="http://www.w3.org/2000/svg">
<g clip-path="url(#clip0_134_9270)">
<path d="M5.32279 14.5036L4.48739 17.6223L1.43401 17.6869C0.521498 15.9944 0.00390625 14.0579 0.00390625 12.0001C0.00390625 10.0102 0.487842 8.13374 1.34565 6.48145H1.34631L4.06467 6.97982L5.25548 9.68187C5.00625 10.4085 4.8704 11.1885 4.8704 12.0001C4.8705 12.881 5.03006 13.725 5.32279 14.5036Z" fill="#FBBB00"/>
<path d="M23.794 9.75806C23.9319 10.484 24.0037 11.2336 24.0037 11.9998C24.0037 12.8589 23.9134 13.6969 23.7413 14.5053C23.1572 17.2561 21.6308 19.658 19.5163 21.3578L19.5156 21.3571L16.0917 21.1824L15.6071 18.1574C17.0102 17.3345 18.1067 16.0468 18.6843 14.5053H12.2676V9.75806H18.7779H23.794Z" fill="#518EF8"/>
<path d="M19.5153 21.3572L19.5159 21.3579C17.4595 23.0108 14.8471 23.9998 12.0034 23.9998C7.43357 23.9998 3.46041 21.4456 1.43359 17.6867L5.32237 14.5034C6.33576 17.208 8.94477 19.1333 12.0034 19.1333C13.3181 19.1333 14.5498 18.7779 15.6067 18.1575L19.5153 21.3572Z" fill="#28B446"/>
<path d="M19.6634 2.76261L15.776 5.94523C14.6822 5.26151 13.3892 4.86654 12.0039 4.86654C8.876 4.86654 6.2182 6.88014 5.25558 9.68171L1.34636 6.48129H1.3457C3.34285 2.63076 7.36612 0 12.0039 0C14.9155 0 17.5852 1.03715 19.6634 2.76261Z" fill="#F14336"/>
</g>
<defs>
<clipPath id="clip0_134_9270">
<rect width="24" height="24" fill="white"/>
</clipPath>
</defs>
</svg>
