<svg width="24" height="24" viewBox="0 0 24 24" fill="none" xmlns="http://www.w3.org/2000/svg">
<path fill-rule="evenodd" clip-rule="evenodd" d="M12.5086 4.66551C13.5511 3.59913 14.9653 3 16.4399 3C17.9145 3 19.3288 3.59917 20.3712 4.66562C21.4141 5.73155 22 7.1775 22 8.68523C22 10.193 21.4141 11.639 20.3711 12.7049L12.4417 20.8128C12.1976 21.0624 11.8019 21.0624 11.5578 20.8128L3.62838 12.7049C1.45721 10.4849 1.45721 6.88554 3.62838 4.66551C5.79955 2.44548 9.31972 2.44548 11.4909 4.66551L11.9998 5.18584L12.5086 4.66551ZM16.4399 4.27813C15.2969 4.27813 14.2007 4.74255 13.3926 5.56918L12.4417 6.5415C12.3245 6.66134 12.1655 6.72867 11.9998 6.72867C11.834 6.72867 11.675 6.66134 11.5578 6.5415L10.607 5.56929C8.92399 3.8484 6.19528 3.8484 4.51226 5.56929C2.82925 7.29017 2.82925 10.0803 4.51226 11.8012L11.9998 19.4572L19.4873 11.8012C20.2957 10.9749 20.75 9.85398 20.75 8.68523C20.75 7.51648 20.2958 6.39563 19.4874 5.56939C18.6793 4.74277 17.5829 4.27813 16.4399 4.27813Z" fill="#AD8775"/>
</svg>
