<svg width="20" height="20" viewBox="0 0 20 20" fill="none" xmlns="http://www.w3.org/2000/svg">
<path d="M16.7083 9.125C16.9028 9.125 17 9.22222 17 9.41667V10.5833C17 10.7778 16.9028 10.875 16.7083 10.875H10.875V16.7083C10.875 16.9028 10.7778 17 10.5833 17H9.41667C9.22222 17 9.125 16.9028 9.125 16.7083V10.875H3.29167C3.09722 10.875 3 10.7778 3 10.5833V9.41667C3 9.22222 3.09722 9.125 3.29167 9.125H9.125V3.29167C9.125 3.09722 9.22222 3 9.41667 3H10.5833C10.7778 3 10.875 3.09722 10.875 3.29167V9.125H16.7083Z" fill="#AD8775"/>
</svg>
