<svg width="24" height="24" viewBox="0 0 24 24" fill="none" xmlns="http://www.w3.org/2000/svg">
<path d="M21.8244 20.8098C22.0585 21.0179 22.0585 21.239 21.8244 21.4732L21.4732 21.8244C21.239 22.0585 21.0179 22.0585 20.8098 21.8244L15.7756 16.8293C15.6715 16.7252 15.6195 16.6081 15.6195 16.478V16.0878C14.0585 17.5187 12.2244 18.2341 10.1171 18.2341C7.87967 18.2341 5.96748 17.4406 4.38049 15.8537C2.7935 14.2667 2 12.3545 2 10.1171C2 7.87967 2.7935 5.96748 4.38049 4.38049C5.96748 2.7935 7.87967 2 10.1171 2C12.3545 2 14.2667 2.7935 15.8537 4.38049C17.4406 5.96748 18.2341 7.87967 18.2341 10.1171C18.2341 12.2244 17.5187 14.0585 16.0878 15.6195H16.478C16.6081 15.6195 16.7252 15.6715 16.8293 15.7756L21.8244 20.8098ZM5.23902 14.9951C6.59187 16.322 8.21789 16.9854 10.1171 16.9854C12.0163 16.9854 13.6293 16.322 14.9561 14.9951C16.3089 13.6423 16.9854 12.0163 16.9854 10.1171C16.9854 8.21789 16.3089 6.60488 14.9561 5.27805C13.6293 3.9252 12.0163 3.24878 10.1171 3.24878C8.21789 3.24878 6.59187 3.9252 5.23902 5.27805C3.9122 6.60488 3.24878 8.21789 3.24878 10.1171C3.24878 12.0163 3.9122 13.6423 5.23902 14.9951Z" fill="#AD8775"/>
</svg>
