<svg width="24" height="24" viewBox="0 0 24 24" fill="none" xmlns="http://www.w3.org/2000/svg">
<path d="M13.0616 12.0001L17.7806 7.28108C18.0738 6.98814 18.0738 6.51283 17.7806 6.21989C17.4874 5.9267 17.0126 5.9267 16.7194 6.21989L12.0004 10.9389L7.28108 6.21989C6.98789 5.9267 6.51308 5.9267 6.21989 6.21989C5.9267 6.51283 5.9267 6.98814 6.21989 7.28108L10.9392 12.0001L6.21989 16.7192C5.9267 17.0121 5.9267 17.4874 6.21989 17.7804C6.36649 17.9267 6.55861 18 6.75048 18C6.94236 18 7.13448 17.9267 7.28108 17.7801L12.0004 13.0611L16.7194 17.7801C16.866 17.9267 17.0581 18 17.25 18C17.4419 18 17.634 17.9267 17.7806 17.7801C18.0738 17.4872 18.0738 17.0119 17.7806 16.7189L13.0616 12.0001Z" fill="#AD8775"/>
</svg>
