<svg width="24" height="24" viewBox="0 0 24 24" fill="none" xmlns="http://www.w3.org/2000/svg">
<g clip-path="url(#clip0_555_11702)">
<path d="M12.0039 24C18.6313 24 24.0039 18.6274 24.0039 12C24.0039 5.37258 18.6313 0 12.0039 0C5.37649 0 0.00390625 5.37258 0.00390625 12C0.00390625 18.6274 5.37649 24 12.0039 24Z" fill="url(#paint0_linear_555_11702)"/>
<path d="M9.80093 17.497C9.41299 17.497 9.47874 17.3523 9.34724 16.9775L8.20312 13.2164L17.0009 8.0022" fill="#C8DAEA"/>
<path d="M9.80176 17.4967C10.1042 17.4967 10.2357 17.3586 10.4001 17.1943L11.9979 15.6359L9.99902 14.4326" fill="#A9C9DD"/>
<path d="M10.0051 14.4394L14.838 18.0098C15.3903 18.3123 15.7914 18.1545 15.9229 17.4969L17.8889 8.21912C18.0928 7.41036 17.5799 7.04214 17.0539 7.28542L5.4944 11.7435C4.70535 12.0591 4.71193 12.4997 5.34974 12.6969L8.31522 13.6241L15.1799 9.2909C15.5021 9.09364 15.8045 9.19885 15.5547 9.41584" fill="url(#paint1_linear_555_11702)"/>
</g>
<defs>
<linearGradient id="paint0_linear_555_11702" x1="15.5215" y1="3.79398" x2="9.52162" y2="17.7929" gradientUnits="userSpaceOnUse">
<stop stop-color="#37AEE2"/>
<stop offset="1" stop-color="#1E96C8"/>
</linearGradient>
<linearGradient id="paint1_linear_555_11702" x1="12.848" y1="12.2883" x2="14.7259" y2="16.5615" gradientUnits="userSpaceOnUse">
<stop stop-color="#EFF7FC"/>
<stop offset="1" stop-color="white"/>
</linearGradient>
<clipPath id="clip0_555_11702">
<rect width="24" height="24" fill="white"/>
</clipPath>
</defs>
</svg>
