<svg width="24" height="24" viewBox="0 0 24 24" fill="none" xmlns="http://www.w3.org/2000/svg">
<path d="M20.6786 4.5C20.8929 4.5 21 4.60417 21 4.8125V5.4375C21 5.64583 20.8929 5.75 20.6786 5.75H19.9152L18.5893 20.2812C18.5357 20.75 18.3214 21.1536 17.9464 21.4922C17.5714 21.8307 17.1429 22 16.6607 22H7.33929C6.85714 22 6.42857 21.8307 6.05357 21.4922C5.67857 21.1536 5.46429 20.75 5.41071 20.2812L4.08482 5.75H3.32143C3.10714 5.75 3 5.64583 3 5.4375V4.8125C3 4.60417 3.10714 4.5 3.32143 4.5H7.5L8.86607 2.74219C9.02679 2.53385 9.25446 2.36458 9.54911 2.23438C9.84375 2.07812 10.125 2 10.3929 2H13.6071C13.875 2 14.1562 2.07812 14.4509 2.23438C14.7455 2.36458 14.9732 2.53385 15.1339 2.74219L16.5 4.5H20.6786ZM9.87054 3.48438L9.10714 4.5H14.8929L14.1295 3.48438C13.9955 3.32812 13.8214 3.25 13.6071 3.25H10.3929C10.1786 3.25 10.0045 3.32812 9.87054 3.48438ZM17.3036 20.1641L18.6295 5.75H5.37054L6.69643 20.1641C6.69643 20.3203 6.76339 20.4505 6.89732 20.5547C7.03125 20.6849 7.17857 20.75 7.33929 20.75H16.6607C16.7679 20.75 16.8616 20.724 16.942 20.6719C17.0491 20.6198 17.1295 20.5417 17.183 20.4375C17.2634 20.3594 17.3036 20.2682 17.3036 20.1641Z" fill="#AD8775"/>
</svg>
