<svg width="19" height="18" viewBox="0 0 19 18" fill="none" xmlns="http://www.w3.org/2000/svg">
<path d="M17.5539 12.0625C17.6852 12.0625 17.7883 12.1081 17.8633 12.1992C17.957 12.2721 18.0039 12.3724 18.0039 12.5V12.9375C18.0039 13.0651 17.957 13.1745 17.8633 13.2656C17.7883 13.3385 17.6852 13.375 17.5539 13.375H16.2039C16.2039 14.1042 15.9414 14.724 15.4164 15.2344C14.8914 15.7448 14.2539 16 13.5039 16C12.7539 16 12.1164 15.7448 11.5914 15.2344C11.0664 14.724 10.8039 14.1042 10.8039 13.375H7.20391C7.20391 14.1042 6.94141 14.724 6.41641 15.2344C5.89141 15.7448 5.25391 16 4.50391 16C3.75391 16 3.11641 15.7448 2.59141 15.2344C2.06641 14.724 1.80391 14.1042 1.80391 13.375H1.57891C1.14766 13.375 0.772656 13.2292 0.453906 12.9375C0.153906 12.6276 0.00390625 12.263 0.00390625 11.8438V3.53125C0.00390625 3.11198 0.153906 2.75651 0.453906 2.46484C0.772656 2.15495 1.14766 2 1.57891 2H10.1289C10.5602 2 10.9258 2.15495 11.2258 2.46484C11.5445 2.75651 11.7039 3.11198 11.7039 3.53125V4.625H12.7164C13.2789 4.625 13.757 4.81641 14.1508 5.19922L16.5133 7.49609C16.907 7.87891 17.1039 8.34375 17.1039 8.89062V12.0625H17.5539ZM3.54766 14.3047C3.81016 14.5599 4.12891 14.6875 4.50391 14.6875C4.87891 14.6875 5.19766 14.5599 5.46016 14.3047C5.72266 14.0495 5.85391 13.7396 5.85391 13.375C5.85391 13.0104 5.72266 12.7005 5.46016 12.4453C5.19766 12.1901 4.87891 12.0625 4.50391 12.0625C4.12891 12.0625 3.81016 12.1901 3.54766 12.4453C3.28516 12.7005 3.15391 13.0104 3.15391 13.375C3.15391 13.7396 3.28516 14.0495 3.54766 14.3047ZM10.3539 12.0625V3.53125C10.3539 3.38542 10.2789 3.3125 10.1289 3.3125H1.57891C1.42891 3.3125 1.35391 3.38542 1.35391 3.53125V11.8438C1.35391 11.9896 1.42891 12.0625 1.57891 12.0625H2.16953C2.41328 11.6615 2.74141 11.3424 3.15391 11.1055C3.56641 10.8685 4.01641 10.75 4.50391 10.75C4.99141 10.75 5.44141 10.8685 5.85391 11.1055C6.26641 11.3424 6.59453 11.6615 6.83828 12.0625H10.3539ZM11.7039 5.9375V8.125H15.2477L13.1945 6.12891C13.0633 6.0013 12.9039 5.9375 12.7164 5.9375H11.7039ZM12.5477 14.3047C12.8102 14.5599 13.1289 14.6875 13.5039 14.6875C13.8789 14.6875 14.1977 14.5599 14.4602 14.3047C14.7227 14.0495 14.8539 13.7396 14.8539 13.375C14.8539 13.0104 14.7227 12.7005 14.4602 12.4453C14.1977 12.1901 13.8789 12.0625 13.5039 12.0625C13.1289 12.0625 12.8102 12.1901 12.5477 12.4453C12.2852 12.7005 12.1539 13.0104 12.1539 13.375C12.1539 13.7396 12.2852 14.0495 12.5477 14.3047ZM15.7539 11.9258V9.4375H11.7039V11.4336C12.2289 10.9779 12.8289 10.75 13.5039 10.75C14.4602 10.75 15.2102 11.1419 15.7539 11.9258Z" fill="currentColor"/>
</svg>
