<svg width="24" height="24" viewBox="0 0 24 24" fill="none" xmlns="http://www.w3.org/2000/svg">
<g clip-path="url(#clip0_555_11708)">
<path d="M12.0039 24C18.6313 24 24.0039 18.6274 24.0039 12C24.0039 5.37258 18.6313 0 12.0039 0C5.37649 0 0.00390625 5.37258 0.00390625 12C0.00390625 18.6274 5.37649 24 12.0039 24Z" fill="#2DAAE1"/>
<path d="M19.6979 7.22662C19.1319 7.47779 18.524 7.64758 17.8848 7.7239C18.5372 7.33326 19.0369 6.71423 19.2729 5.97749C18.6532 6.34555 17.975 6.60466 17.2678 6.74357C16.6922 6.13009 15.8715 5.74707 14.9635 5.74707C13.2206 5.74707 11.8072 7.15996 11.8072 8.90384C11.8072 9.15093 11.835 9.39198 11.8885 9.62342C9.26484 9.49157 6.9388 8.23482 5.38186 6.32518C5.11 6.79157 4.95439 7.33383 4.95439 7.91239C4.95439 9.00746 5.51177 9.97364 6.35869 10.5396C5.85732 10.5241 5.36696 10.3887 4.9286 10.1449V10.1848C4.9286 11.7145 6.01658 12.9899 7.46081 13.28C7.19551 13.3527 6.91708 13.3907 6.62904 13.3907C6.42539 13.3907 6.22781 13.3714 6.03479 13.3351C6.43651 14.5888 7.60236 15.5014 8.98336 15.5272C7.90295 16.3741 6.5416 16.879 5.06302 16.879C4.80835 16.879 4.55666 16.8638 4.30957 16.834C5.70682 17.7299 7.36583 18.253 9.14863 18.253C14.9549 18.253 18.1304 13.4427 18.1304 9.27125C18.1304 9.1343 18.1274 8.99837 18.1208 8.86293C18.7394 8.41543 19.2735 7.86135 19.6979 7.22662V7.22662Z" fill="white"/>
</g>
<defs>
<clipPath id="clip0_555_11708">
<rect width="24" height="24" fill="white"/>
</clipPath>
</defs>
</svg>
