<svg width="24" height="24" viewBox="0 0 24 24" fill="none" xmlns="http://www.w3.org/2000/svg">
<path d="M15.6161 13.25C17.0893 13.25 18.3482 13.7708 19.3929 14.8125C20.4643 15.8281 21 17.0521 21 18.4844V20.125C21 20.6458 20.8125 21.0885 20.4375 21.4531C20.0625 21.8177 19.6071 22 19.0714 22H4.92857C4.39286 22 3.9375 21.8177 3.5625 21.4531C3.1875 21.0885 3 20.6458 3 20.125V18.4844C3 17.0521 3.52232 15.8281 4.56696 14.8125C5.63839 13.7708 6.91071 13.25 8.38393 13.25C8.73214 13.25 9.24107 13.3542 9.91071 13.5625C10.6071 13.7708 11.3036 13.875 12 13.875C12.6964 13.875 13.3929 13.7708 14.0893 13.5625C14.7857 13.3542 15.2946 13.25 15.6161 13.25ZM19.7143 20.125V18.4844C19.7143 17.3906 19.3125 16.4531 18.5089 15.6719C17.7054 14.8906 16.7411 14.5 15.6161 14.5C15.4554 14.5 15 14.6042 14.25 14.8125C13.5268 15.0208 12.7768 15.125 12 15.125C11.2232 15.125 10.4598 15.0208 9.70982 14.8125C8.98661 14.6042 8.54464 14.5 8.38393 14.5C7.25893 14.5 6.29464 14.8906 5.49107 15.6719C4.6875 16.4531 4.28571 17.3906 4.28571 18.4844V20.125C4.28571 20.3073 4.33929 20.4505 4.44643 20.5547C4.58036 20.6849 4.74107 20.75 4.92857 20.75H19.0714C19.2589 20.75 19.4062 20.6849 19.5134 20.5547C19.6473 20.4505 19.7143 20.3073 19.7143 20.125ZM15.6161 10.5547C14.625 11.5182 13.4196 12 12 12C10.5804 12 9.36161 11.5182 8.34375 10.5547C7.35268 9.5651 6.85714 8.38021 6.85714 7C6.85714 5.61979 7.35268 4.44792 8.34375 3.48438C9.36161 2.49479 10.5804 2 12 2C13.4196 2 14.625 2.49479 15.6161 3.48438C16.6339 4.44792 17.1429 5.61979 17.1429 7C17.1429 8.38021 16.6339 9.5651 15.6161 10.5547ZM14.7321 4.34375C13.9821 3.61458 13.0714 3.25 12 3.25C10.9286 3.25 10.0179 3.61458 9.26786 4.34375C8.51786 5.07292 8.14286 5.95833 8.14286 7C8.14286 8.04167 8.51786 8.92708 9.26786 9.65625C10.0179 10.3854 10.9286 10.75 12 10.75C13.0714 10.75 13.9821 10.3854 14.7321 9.65625C15.4821 8.92708 15.8571 8.04167 15.8571 7C15.8571 5.95833 15.4821 5.07292 14.7321 4.34375Z" fill="#AD8775"/>
</svg>
