<svg width="18" height="18" viewBox="0 0 18 18" fill="none" xmlns="http://www.w3.org/2000/svg">
<path d="M2.6129 2.64919C4.37903 0.883065 6.50806 0 9 0C11.4919 0 13.6089 0.883065 15.3508 2.64919C17.1169 4.39113 18 6.50806 18 9C18 11.4919 17.1169 13.621 15.3508 15.3871C13.6089 17.129 11.4919 18 9 18C6.50806 18 4.37903 17.129 2.6129 15.3871C0.870968 13.621 0 11.4919 0 9C0 6.50806 0.870968 4.39113 2.6129 2.64919ZM9 16.8387C11.1774 16.8387 13.0282 16.0766 14.5524 14.5524C16.0766 13.004 16.8387 11.1532 16.8387 9C16.8387 6.82258 16.0645 4.97177 14.5161 3.44758C12.9919 1.92339 11.1532 1.16129 9 1.16129C6.82258 1.16129 4.97177 1.93548 3.44758 3.48387C1.92339 5.00806 1.16129 6.84677 1.16129 9C1.16129 11.1774 1.92339 13.0282 3.44758 14.5524C4.99597 16.0766 6.84677 16.8387 9 16.8387ZM14.1532 6.85887L7.58468 13.3548C7.39113 13.5726 7.18548 13.5726 6.96774 13.3548L3.84677 10.1976C3.65323 10.004 3.65323 9.79839 3.84677 9.58065L4.17339 9.29032C4.36694 9.09677 4.57258 9.09677 4.79032 9.29032L7.29435 11.8306L13.2097 5.91532C13.4274 5.72177 13.6331 5.73387 13.8266 5.95161L14.1532 6.24194C14.3468 6.45968 14.3468 6.66532 14.1532 6.85887Z" fill="#AD8775"/>
</svg>
